<?xml version="1.0" encoding="UTF-8" standalone="no"?>
<svg
   xmlns:dc="http://purl.org/dc/elements/1.1/"
   xmlns:cc="http://creativecommons.org/ns#"
   xmlns:rdf="http://www.w3.org/1999/02/22-rdf-syntax-ns#"
   xmlns:svg="http://www.w3.org/2000/svg"
   xmlns="http://www.w3.org/2000/svg"
   id="svg15"
   version="1.1"
   height="60"
   width="266">
  <metadata
     id="metadata21">
    <rdf:RDF>
      <cc:Work
         rdf:about="">
        <dc:format>image/svg+xml</dc:format>
        <dc:type
           rdf:resource="http://purl.org/dc/dcmitype/StillImage" />
      </cc:Work>
    </rdf:RDF>
  </metadata>
  <defs
     id="defs19" />
  <!-- Created with Method Draw - http://github.com/duopixel/Method-Draw/ -->
  <g
     id="g8">
    <title
       id="title2">background</title>
    <path
       id="canvas_background"
       d="M -1,-1 H 267 V 61 H -1 Z"
       style="fill:#2d2727" />
    <g
       style="display:none;overflow:visible"
       id="canvasGrid"
       width="100%"
       height="100%"
       x="0"
       y="0"
       overflow="visible"
       display="none">
      <path
         id="rect5"
         d="M 0,0 H 266 V 60 H 0 Z"
         style="fill:url(#gridpattern);stroke-width:0" />
    </g>
  </g>
  <g
     id="g13">
    <title
       id="title10">Layer 1</title>
    <g
       id="svg_1"
       style="font-weight:bold;font-size:47px;font-family:Helvetica, Arial, sans-serif;text-anchor:start;fill:#ffffff;stroke:#000000;stroke-width:0"
       aria-label="Snokscok">
      <path
         id="path25"
         style="font-weight:bold;font-size:47px;font-family:Helvetica, Arial, sans-serif;text-anchor:start;fill:#ffffff;stroke:#000000;stroke-width:0"
         d="m 22.998241,35.053223 6.609375,-0.642578 q 0.59668,3.327636 2.409668,4.888183 1.835938,1.560547 4.934082,1.560547 3.281739,0 4.934082,-1.376953 1.675293,-1.399902 1.675293,-3.258789 0,-1.19336 -0.711425,-2.019531 -0.688477,-0.849122 -2.432618,-1.46875 -1.193359,-0.413086 -5.438964,-1.46875 -5.461914,-1.354004 -7.665039,-3.327637 -3.098145,-2.776856 -3.098145,-6.77002 0,-2.570312 1.445801,-4.796386 1.46875,-2.249024 4.199707,-3.419434 2.753906,-1.17041 6.632324,-1.17041 6.333984,0 9.523926,2.776855 3.21289,2.776856 3.373535,7.412598 l -6.792969,0.29834 q -0.436035,-2.593262 -1.881836,-3.717774 -1.422851,-1.147461 -4.291504,-1.147461 -2.960449,0 -4.635742,1.216309 -1.078613,0.780273 -1.078613,2.088379 0,1.193359 1.009766,2.04248 1.285156,1.078614 6.242187,2.249024 4.957031,1.17041 7.320801,2.432617 2.386719,1.239258 3.717773,3.419434 1.354004,2.157226 1.354004,5.347168 0,2.891601 -1.606445,5.416015 -1.606445,2.524414 -4.543945,3.763672 -2.9375,1.216309 -7.320801,1.216309 -6.379883,0 -9.799317,-2.9375 -3.419433,-2.96045 -4.084961,-8.605957 z" />
      <path
         id="path27"
         style="font-weight:bold;font-size:47px;font-family:Helvetica, Arial, sans-serif;text-anchor:start;fill:#ffffff;stroke:#000000;stroke-width:0"
         d="M 78.237011,46 H 71.78828 V 33.561523 q 0,-3.947265 -0.413085,-5.094726 -0.413086,-1.17041 -1.354004,-1.812988 -0.917969,-0.642579 -2.226075,-0.642579 -1.675293,0 -3.006347,0.917969 -1.331055,0.917969 -1.835938,2.432617 -0.481933,1.514649 -0.481933,5.59961 V 46 H 56.022167 V 21.62793 h 5.989746 v 3.580078 q 3.189942,-4.13086 8.032227,-4.13086 2.134277,0 3.901367,0.780274 1.76709,0.757324 2.662109,1.950683 0.917969,1.19336 1.262207,2.708008 0.367188,1.514649 0.367188,4.337403 z" />
      <path
         id="path29"
         style="font-weight:bold;font-size:47px;font-family:Helvetica, Arial, sans-serif;text-anchor:start;fill:#ffffff;stroke:#000000;stroke-width:0"
         d="m 83.308788,33.469727 q 0,-3.212891 1.583496,-6.219239 1.583496,-3.006347 4.475098,-4.589843 2.914551,-1.583497 6.494629,-1.583497 5.530759,0 9.064939,3.603028 3.53418,3.580078 3.53418,9.064941 0,5.530762 -3.58008,9.179688 -3.55712,3.625976 -8.973141,3.625976 -3.350586,0 -6.402832,-1.514648 -3.029297,-1.514649 -4.612793,-4.429199 -1.583496,-2.9375 -1.583496,-7.137207 z m 6.609375,0.344238 q 0,3.625976 1.721192,5.553711 1.721191,1.927734 4.245605,1.927734 2.524414,0 4.22266,-1.927734 1.72119,-1.927735 1.72119,-5.59961 0,-3.580078 -1.72119,-5.507812 -1.698246,-1.927734 -4.22266,-1.927734 -2.524414,0 -4.245605,1.927734 -1.721192,1.927734 -1.721192,5.553711 z" />
      <path
         id="path31"
         style="font-weight:bold;font-size:47px;font-family:Helvetica, Arial, sans-serif;text-anchor:start;fill:#ffffff;stroke:#000000;stroke-width:0"
         d="M 113.30342,46 V 12.356445 h 6.44873 v 17.854492 l 7.55029,-8.583007 h 7.94043 L 126.9123,30.532227 135.83955,46 h -6.95361 l -6.12744,-10.946777 -3.00635,3.144043 V 46 Z" />
      <path
         id="path33"
         style="font-weight:bold;font-size:47px;font-family:Helvetica, Arial, sans-serif;text-anchor:start;fill:#ffffff;stroke:#000000;stroke-width:0"
         d="m 137.42305,39.046387 6.47168,-0.986817 q 0.41308,1.881836 1.67529,2.868653 1.26221,0.963867 3.53418,0.963867 2.50146,0 3.76367,-0.917969 0.84912,-0.642578 0.84912,-1.721191 0,-0.734375 -0.45898,-1.216309 -0.48194,-0.458984 -2.15723,-0.849121 -7.80273,-1.721191 -9.89111,-3.144043 -2.8916,-1.973633 -2.8916,-5.484863 0,-3.166992 2.50146,-5.324219 2.50147,-2.157227 7.75684,-2.157227 5.00293,0 7.43554,1.629395 2.43262,1.629394 3.35059,4.819336 l -6.08154,1.124512 q -0.39014,-1.422852 -1.4917,-2.180176 -1.07862,-0.757324 -3.09815,-0.757324 -2.54736,0 -3.64892,0.711425 -0.73438,0.504883 -0.73438,1.308106 0,0.688476 0.64258,1.17041 0.87207,0.642578 6.0127,1.812988 5.16357,1.17041 7.20605,2.868653 2.01953,1.721191 2.01953,4.796386 0,3.350586 -2.7998,5.760254 -2.79981,2.409668 -8.28467,2.409668 -4.97998,0 -7.89453,-2.019531 -2.8916,-2.019531 -3.78662,-5.484863 z" />
      <path
         id="path35"
         style="font-weight:bold;font-size:47px;font-family:Helvetica, Arial, sans-serif;text-anchor:start;fill:#ffffff;stroke:#000000;stroke-width:0"
         d="m 187.1081,28.833984 -6.35693,1.147461 q -0.32129,-1.904785 -1.46875,-2.868652 -1.12451,-0.963867 -2.9375,-0.963867 -2.40967,0 -3.85547,1.675293 -1.42285,1.652343 -1.42285,5.553711 0,4.337402 1.4458,6.127441 1.46875,1.790039 3.92432,1.790039 1.83594,0 3.00635,-1.032715 1.17041,-1.055664 1.65234,-3.603027 l 6.33398,1.078613 q -0.98681,4.360352 -3.78662,6.586426 -2.7998,2.226074 -7.50439,2.226074 -5.34717,0 -8.53711,-3.373535 -3.16699,-3.373535 -3.16699,-9.340332 0,-6.035644 3.18994,-9.38623 3.18994,-3.373536 8.6289,-3.373536 4.45215,0 7.06836,1.927735 2.63916,1.904785 3.78662,5.829101 z" />
      <path
         id="path37"
         style="font-weight:bold;font-size:47px;font-family:Helvetica, Arial, sans-serif;text-anchor:start;fill:#ffffff;stroke:#000000;stroke-width:0"
         d="m 190.52754,33.469727 q 0,-3.212891 1.58349,-6.219239 1.5835,-3.006347 4.4751,-4.589843 2.91455,-1.583497 6.49463,-1.583497 5.53076,0 9.06494,3.603028 3.53418,3.580078 3.53418,9.064941 0,5.530762 -3.58008,9.179688 -3.55712,3.625976 -8.97314,3.625976 -3.35059,0 -6.40283,-1.514648 -3.0293,-1.514649 -4.6128,-4.429199 -1.58349,-2.9375 -1.58349,-7.137207 z m 6.60937,0.344238 q 0,3.625976 1.72119,5.553711 1.7212,1.927734 4.24561,1.927734 2.52441,0 4.22266,-1.927734 1.72119,-1.927735 1.72119,-5.59961 0,-3.580078 -1.72119,-5.507812 -1.69825,-1.927734 -4.22266,-1.927734 -2.52441,0 -4.24561,1.927734 -1.72119,1.927734 -1.72119,5.553711 z" />
      <path
         id="path39"
         style="font-weight:bold;font-size:47px;font-family:Helvetica, Arial, sans-serif;text-anchor:start;fill:#ffffff;stroke:#000000;stroke-width:0"
         d="M 220.52217,46 V 12.356445 h 6.44873 v 17.854492 l 7.55029,-8.583007 h 7.94043 L 234.13105,30.532227 243.0583,46 h -6.95361 l -6.12744,-10.946777 -3.00635,3.144043 V 46 Z" />
    </g>
  </g>
</svg>
